# xmcd
#
# Track frame offsets:
# 150
# 13290
# 25104
# 38309
# 51493
# 63538
# 77387
# 91247
# 104211
# 117031
# 130641
# 144456
# 160036
# 174995
# 192540
# 206169
# 220659
# 239613
# 254333
# 267587
# 281012
#
# Disc length: 3933 seconds
#
#
# Revision: 1
# Processed by: cddbd v1.5.2PL0 Copyright (c) Steve Scherf et al.
# Submitted via: FreeRIP 2.951 
#
DISCID=300f5b15
DTITLE=Billie Holiday - The Jazz
DYEAR=2001
DGENRE=Jazz
TTITLE0=You let me down
TTITLE1=No regrets
TTITLE2=Summertime
TTITLE3=I must have that man
TTITLE4=He's funny that way
TTITLE5=My man
TTITLE6=Easy living
TTITLE7=You go to my head
TTITLE8=I can't believe that you're in love with me
TTITLE9=Night and day
TTITLE10=That's all I ask for you
TTITLE11=Yesterdays
TTITLE12=Fine and mellow
TTITLE13=All for me
TTITLE14=God bless the child
TTITLE15=Gloomy sunday
TTITLE16=I love my man
TTITLE17=As time goes by
TTITLE18=Don't explain
TTITLE19=Strange fruit
TTITLE20=The man I love
EXTD=
EXTT0=
EXTT1=
EXTT2=
EXTT3=
EXTT4=
EXTT5=
EXTT6=
EXTT7=
EXTT8=
EXTT9=
EXTT10=
EXTT11=
EXTT12=
EXTT13=
EXTT14=
EXTT15=
EXTT16=
EXTT17=
EXTT18=
EXTT19=
EXTT20=
PLAYORDER=
